<svg xmlns="http://www.w3.org/2000/svg" width="119.641" height="190.371" viewBox="0 0 119.641 190.371">
  <g id="arrow" transform="matrix(0.998, 0.07, -0.07, 0.998, -436.944, -224.837)">
    <path id="Path_15" data-name="Path 15" d="M45.572-.2S.151,32.793-1.229,64.866,20.085,130.3,52.669,115.5c13.652-6.2,9.556-25.243,9.538-25.26s0-.005,0,0c.019-.132-9.834-18.232-28.368-16.954-32.469,7.7-23.019,50.588-13.8,64.93s28.678,35.644,28.678,35.644" transform="matrix(0.966, 0.259, -0.259, 0.966, 510.529, 191.387)" fill="none" stroke="#2fad9f" stroke-width="2" stroke-dasharray="7 5"/>
    <path id="Path_16" data-name="Path 16" d="M9.459,0V9.111L0,5.086" transform="matrix(0.995, -0.105, 0.105, 0.995, 508.323, 370.501)" fill="none" stroke="#2fad9f" stroke-linecap="round" stroke-linejoin="round" stroke-width="2"/>
  </g>
</svg>
