<svg xmlns="http://www.w3.org/2000/svg" width="17" height="17" viewBox="0 0 17 17">
  <g id="copy_rights" data-name="copy rights" transform="translate(0.812 0.392)">
    <rect id="Rectangle_14" data-name="Rectangle 14" width="17" height="17" transform="translate(-0.812 -0.392)" fill="#fff" opacity="0"/>
    <g id="Group_39" data-name="Group 39" transform="translate(1.322 1.322)">
      <path id="Path_12" data-name="Path 12" d="M8.886,2.31a6.576,6.576,0,1,0,6.576,6.576A6.584,6.584,0,0,0,8.886,2.31Zm0,1.012A5.565,5.565,0,1,1,3.322,8.886,5.558,5.558,0,0,1,8.886,3.322ZM8.839,5.851a3.035,3.035,0,1,0,2.735,4.316l-.917-.427a2,2,0,0,1-1.818,1.17,2.023,2.023,0,0,1,0-4.047,2,2,0,0,1,1.818,1.17l.917-.427A3.032,3.032,0,0,0,8.839,5.851Z" transform="translate(-2.31 -2.31)" fill="#fff"/>
    </g>
  </g>
</svg>
