<svg xmlns="http://www.w3.org/2000/svg" width="32" height="32" viewBox="0 0 32 32">
  <g id="Menu" transform="translate(-0.1 -0.1)">
    <rect id="Rectangle_16" data-name="Rectangle 16" width="32" height="32" transform="translate(0.1 0.1)" opacity="0"/>
    <g id="Group_48" data-name="Group 48" transform="translate(2.698 6.063)">
      <path id="Path_50" data-name="Path 50" d="M3.343,4.5a1.338,1.338,0,1,0,0,2.677H27.432a1.338,1.338,0,1,0,0-2.677Zm0,8.7a1.338,1.338,0,1,0,0,2.677H27.432a1.338,1.338,0,1,0,0-2.677Zm0,8.7a1.338,1.338,0,1,0,0,2.677H27.432a1.338,1.338,0,1,0,0-2.677Z" transform="translate(-1.986 -4.5)"/>
    </g>
  </g>
</svg>
